<svg
  width="235"
  height="206"
  viewBox="0 0 235 206"
  fill="none"
  xmlns="http://www.w3.org/2000/svg"
>
  <path
    d="M5 67.382C5.75542 18.0652 63.1683 -27.6845 117.545 36.7022C171.921 -27.6845 229.334 18.0621 230.089 67.3791C230.089 140.798 139.062 201.064 117.544 201.064C96.0273 201.064 5 140.801 5 67.382Z"
    stroke="white"
    strokeWidth="9"
    strokeLinecap="round"
    strokeLinejoin="round"
    fill="white"
  />
  <path
    fillRule="evenodd"
    clipRule="evenodd"
    d="M125.93 87.0328C130.81 97.2821 130.503 110.141 122.68 118.887C111.495 131.385 89.8888 128.384 70.222 128.343C62.6089 128.229 55.0777 125.077 49.5537 119.677C33.8975 104 42.4674 70.9579 68.4125 70.3828C83.0787 70.2375 99.1287 67.7544 110.741 72.2972C111.648 72.6504 112.528 73.0576 113.379 73.5077C111.1 75.9288 108.364 79.1762 106.621 82.4033C104.771 81.6356 102.781 81.1805 100.7 81.1232C84.3717 80.8846 64.5809 76.6933 55.5702 87.5809C49.8507 94.489 50.5332 105.814 57.4205 112.386C60.8463 115.575 65.4063 117.418 70.015 117.488C88.814 117.526 112.324 121.551 117.933 105.712C119.038 102.593 119.058 99.233 118.229 96.0303C119.871 93.2605 122.423 89.7203 125.93 87.0328ZM108.298 109.793C103.418 99.5434 103.724 86.684 111.549 77.9368C122.732 65.4401 144.338 68.4416 164.007 68.4802C171.618 68.597 179.15 71.7489 184.673 77.1481C200.331 92.8237 191.762 125.866 165.816 126.441C151.15 126.586 135.1 129.069 123.488 124.526C122.581 124.173 121.7 123.766 120.85 123.316C123.129 120.895 125.865 117.647 127.606 114.422C129.457 115.19 131.448 115.643 133.529 115.7C149.857 115.939 169.648 120.13 178.659 109.243C184.376 102.336 183.696 91.0093 176.807 84.4394C173.383 81.2482 168.821 79.4077 164.212 79.3374C145.415 79.2974 121.905 75.2722 116.296 91.1118C115.189 94.2325 115.171 97.5906 115.998 100.795C114.358 103.563 111.804 107.105 108.298 109.793Z"
    fill="#4287f5"
  />
</svg>
